<svg xmlns="http://www.w3.org/2000/svg" width="1600" height="900" viewBox="0 0 1600 900">
<defs>
<radialGradient id="g1" cx="50%" cy="50%">
<stop offset="0%" stop-color="#facc15" stop-opacity="0.7"/>
<stop offset="100%" stop-color="#0f172a" stop-opacity="0"/>
</radialGradient>
<linearGradient id="bg" x1="0" x2="1">
<stop offset="0%" stop-color="#020617"/>
<stop offset="100%" stop-color="#111827"/>
</linearGradient>
</defs>
<rect width="1600" height="900" fill="url(#bg)"/>
<circle cx="1180" cy="180" r="90" fill="#fde68a"/>
<circle cx="1180" cy="180" r="160" fill="url(#g1)"/>

<rect x="340" y="520" width="520" height="22" rx="11" fill="#2d3748"/>
<rect x="360" y="380" width="230" height="140" rx="18" fill="#0f172a" stroke="#334155"/>
<rect x="385" y="405" width="180" height="95" rx="12" fill="#38bdf8" opacity="0.15"/>

<ellipse cx="720" cy="500" rx="100" ry="40" fill="#f59e0b" opacity="0.35"/>
<rect x="650" y="430" width="140" height="95" rx="0 0 30 30" fill="#111827"/>

<circle cx="1040" cy="610" r="55" fill="#d6d3d1"/>
<rect x="995" y="610" width="90" height="55" rx="18" fill="#e7e5e4"/>
<path d="M1080 620 q40 0 40 28 q0 28 -40 28" fill="none" stroke="#e7e5e4" stroke-width="12"/>

<path d="M1035 540 q20 -40 0 -80" stroke="#cbd5e1" stroke-width="8" fill="none" opacity="0.5"/>
<path d="M1065 520 q20 -40 0 -80" stroke="#cbd5e1" stroke-width="8" fill="none" opacity="0.35"/>
<path d="M1095 540 q20 -40 0 -80" stroke="#cbd5e1" stroke-width="8" fill="none" opacity="0.25"/>

<circle cx="230" cy="160" r="2" fill="#fff"/>
<circle cx="300" cy="240" r="2" fill="#fff"/>
<circle cx="500" cy="180" r="2" fill="#fff"/>
<circle cx="1480" cy="120" r="2" fill="#fff"/>
</svg>